<svg width="25" height="24" viewBox="0 0 25 24" fill="none" xmlns="http://www.w3.org/2000/svg">
<path d="M8.33433 12C8.33433 9.79094 10.1993 7.99968 12.5005 7.99968C14.8017 7.99968 16.6677 9.79094 16.6677 12C16.6677 14.2091 14.8017 16.0003 12.5005 16.0003C10.1993 16.0003 8.33433 14.2091 8.33433 12ZM6.08164 12C6.08164 15.4032 8.95536 18.1619 12.5005 18.1619C16.0456 18.1619 18.9194 15.4032 18.9194 12C18.9194 8.5968 16.0456 5.83814 12.5005 5.83814C8.95536 5.83814 6.08164 8.59661 6.08164 12ZM17.6735 5.59382C17.6734 5.87863 17.7612 6.15707 17.926 6.39394C18.0907 6.63081 18.3249 6.81547 18.599 6.92457C18.873 7.03366 19.1746 7.06229 19.4656 7.00684C19.7566 6.95139 20.024 6.81435 20.2338 6.61304C20.4437 6.41173 20.5867 6.15521 20.6447 5.87589C20.7027 5.59658 20.6731 5.30704 20.5597 5.04387C20.4462 4.7807 20.2541 4.55573 20.0075 4.3974C19.7608 4.23908 19.4709 4.15451 19.1742 4.1544C18.7765 4.15458 18.3945 4.30627 18.1133 4.57616C17.832 4.84605 17.6739 5.21207 17.6735 5.59382ZM7.4503 21.7678C6.23155 21.7145 5.56912 21.5196 5.12891 21.355C4.54528 21.1369 4.12887 20.8771 3.69105 20.4574C3.25323 20.0377 2.98222 19.6383 2.75601 19.0781C2.5844 18.6557 2.3814 18.0196 2.32599 16.8496C2.26539 15.5847 2.25329 15.2048 2.25329 12.0002C2.25329 8.79562 2.26639 8.4167 2.32599 7.15075C2.3815 5.9808 2.586 5.34595 2.75601 4.9223C2.98322 4.36205 3.25383 3.9623 3.69105 3.54202C4.12827 3.12173 4.54428 2.86157 5.12891 2.64442C5.56892 2.47968 6.23155 2.2848 7.4503 2.23162C8.76795 2.17344 9.16377 2.16182 12.5005 2.16182C15.8372 2.16182 16.2334 2.17421 17.5522 2.23181C18.771 2.28509 19.4323 2.48141 19.8736 2.64461C20.4572 2.86176 20.8736 3.1225 21.3115 3.54221C21.7493 3.96192 22.0193 4.36224 22.2465 4.9225C22.4181 5.3449 22.6211 5.98099 22.6765 7.15094C22.7371 8.4169 22.7492 8.79581 22.7492 12.0004C22.7492 15.205 22.7371 15.5839 22.6765 16.8498C22.621 18.0198 22.417 18.6557 22.2465 19.0783C22.0193 19.6385 21.7487 20.0383 21.3115 20.4576C20.8742 20.8769 20.4572 21.1371 19.8736 21.3552C19.4336 21.5199 18.771 21.7148 17.5522 21.768C16.2345 21.8262 15.8387 21.8378 12.5005 21.8378C9.16227 21.8378 8.76755 21.826 7.4503 21.7678ZM7.34679 0.0726721C6.01604 0.130848 5.1067 0.333408 4.31257 0.630048C3.49064 0.936384 2.79391 1.34736 2.09818 2.01418C1.40246 2.68099 0.975439 3.34992 0.656326 4.1399C0.347314 4.90272 0.136306 5.77517 0.0757031 7.05264C0.0141006 8.33213 0 8.74118 0 12C0 15.2588 0.0141006 15.6679 0.0757031 16.9474C0.136306 18.2249 0.347314 19.0973 0.656326 19.8601C0.975439 20.6491 1.40256 21.3193 2.09818 21.9858C2.79381 22.6524 3.48964 23.0628 4.31257 23.37C5.1082 23.6666 6.01604 23.8692 7.34679 23.9273C8.68035 23.9855 9.10576 24 12.5005 24C15.8952 24 16.3214 23.9865 17.6542 23.9273C18.9851 23.8692 19.8938 23.6666 20.6884 23.37C21.5104 23.0628 22.2071 22.6526 22.9028 21.9858C23.5985 21.319 24.0247 20.6491 24.3447 19.8601C24.6537 19.0973 24.8657 18.2248 24.9253 16.9474C24.9859 15.6669 25 15.2588 25 12C25 8.74118 24.9859 8.33213 24.9253 7.05264C24.8647 5.77507 24.6537 4.90224 24.3447 4.1399C24.0247 3.35088 23.5974 2.68205 22.9028 2.01418C22.2082 1.3463 21.5104 0.936384 20.6894 0.630048C19.8938 0.333408 18.985 0.129888 17.6552 0.0726721C16.3222 0.0142081 15.8962 0 12.502 0C9.10776 0 8.68035 0.0135361 7.34679 0.0726721Z" fill="white"/>
</svg>
