<svg width="25" height="25" viewBox="0 0 25 25" fill="none" xmlns="http://www.w3.org/2000/svg">
<path fill-rule="evenodd" clip-rule="evenodd" d="M13.1949 11.0456C13.1993 11.0456 13.2029 11.0421 13.2029 11.0377V11.0377C13.2029 11.0296 13.1914 11.0261 13.1868 11.0327C13.1866 11.0331 13.1863 11.0334 13.1861 11.0338C13.1825 11.039 13.1864 11.0456 13.1927 11.0456H13.1949Z" fill="white"/>
<path fill-rule="evenodd" clip-rule="evenodd" d="M2 0.0952148C0.89543 0.0952148 0 0.990645 0 2.09521V22.4757C0 23.5803 0.895431 24.4757 2 24.4757H22.3805C23.4851 24.4757 24.3805 23.5803 24.3805 22.4757V2.09521C24.3805 0.990645 23.4851 0.0952148 22.3805 0.0952148H2ZM7.58324 18.5413C7.58324 19.5401 6.7735 20.3499 5.77464 20.3499V20.3499C4.77577 20.3499 3.96604 19.5401 3.96604 18.5413V11.2759C3.96604 10.277 4.77577 9.46729 5.77464 9.46729V9.46729C6.7735 9.46729 7.58324 10.277 7.58324 11.2759V18.5413ZM5.77464 7.98195H5.75074C4.53734 7.98195 3.75084 7.146 3.75084 6.10112C3.75084 5.03331 4.56033 4.22104 5.79832 4.22104C7.03658 4.22104 7.79752 5.03331 7.82121 6.10112C7.82121 7.146 7.03658 7.98195 5.77464 7.98195ZM20.6296 18.5408C20.6296 19.5399 19.8197 20.3499 18.8206 20.3499V20.3499C17.8214 20.3499 17.0115 19.5399 17.0115 18.5408V14.5277C17.0115 13.0653 16.4887 12.0671 15.1792 12.0671C14.1791 12.0671 13.5848 12.7392 13.323 13.3902C13.2278 13.6228 13.203 13.9461 13.203 14.2722V18.5449C13.203 19.5418 12.3949 20.3499 11.398 20.3499V20.3499C10.3977 20.3499 9.58801 19.5394 9.59193 18.5391C9.59975 16.5467 9.60981 13.3572 9.60385 11.3169C9.60091 10.3084 10.428 9.46734 11.4365 9.46734H12.8504C13.0451 9.46734 13.203 9.62519 13.203 9.81991V9.81991C13.203 10.1709 13.6989 10.3312 13.96 10.0967C14.4971 9.61452 15.278 9.21186 16.4638 9.21186C18.8449 9.21186 20.6296 10.7668 20.6296 14.1093V18.5408Z" fill="white"/>
</svg>
