<svg width="1440" height="725" viewBox="0 0 1440 725" fill="none" xmlns="http://www.w3.org/2000/svg">
<path fill-rule="evenodd" clip-rule="evenodd" d="M1440 -1.81521e-05L-0.000268302 -2.99895e-05L-0.000321684 725L1440 725L1440 -1.81521e-05ZM498.004 191.018L499.761 196.13C500.012 196.858 499.38 197.584 498.625 197.437L485.817 194.944C485.669 194.915 485.517 194.92 485.371 194.959L465.718 200.145C454.931 202.09 433.074 206.077 431.939 206.467C430.814 206.853 412.866 211.983 403.796 214.567C403.633 214.614 403.466 214.617 403.301 214.578L380.855 209.38C380.673 209.338 380.482 209.348 380.305 209.409L362.135 215.654L348.031 218.424C347.861 218.458 347.685 218.446 347.521 218.391L330.17 212.583C329.962 212.513 329.736 212.514 329.528 212.585L314.04 217.908C313.864 217.968 313.676 217.979 313.495 217.938L272.047 208.609C272.01 208.601 271.972 208.595 271.934 208.591C271.9 208.587 271.865 208.585 271.83 208.585L246.008 208.51L201.393 202.335C201.167 202.304 200.937 202.351 200.741 202.468L174.608 218.169C174.416 218.284 174.192 218.332 173.97 218.305L151.913 215.582C151.756 215.563 151.607 215.507 151.477 215.419L128.285 199.8L109.66 189.921C109.577 189.877 109.488 189.845 109.395 189.825L90.9844 185.99C90.091 185.804 89.8901 184.619 90.6757 184.155C103.2 176.753 124.671 164.293 125.273 164.883C125.911 165.51 163.662 161.206 182.457 158.976L220.145 150.759C220.267 150.732 220.393 150.728 220.516 150.748L253.654 156.059C253.816 156.085 253.982 156.071 254.138 156.018L259.576 154.149C259.873 154.046 260.105 153.81 260.202 153.51L265.904 135.86C266.068 135.353 266.596 135.062 267.111 135.203C274.6 137.255 288.755 141.526 292.055 144.043C295.478 146.655 310.21 156.168 317.25 160.663C317.319 160.707 317.39 160.741 317.468 160.767L335.04 166.649C335.194 166.701 335.358 166.714 335.518 166.688L387.771 158.188C387.823 158.179 387.875 158.175 387.928 158.175L443.541 157.973C443.724 157.972 443.905 158.022 444.062 158.117L497.576 190.487C497.777 190.608 497.928 190.796 498.004 191.018Z" fill="black"/>
</svg>
