<svg width="24" height="24" viewBox="0 0 24 24" fill="none" xmlns="http://www.w3.org/2000/svg">
<path d="M2.28223 10.5313C2.28223 10.5313 11.5322 6.73507 14.7403 5.39833C15.9701 4.86368 20.1406 3.15265 20.1406 3.15265C20.1406 3.15265 22.0655 2.40414 21.905 4.22203C21.8515 4.97061 21.4238 7.59051 20.9961 10.4243C20.3544 14.4345 19.6593 18.8188 19.6593 18.8188C19.6593 18.8188 19.5524 20.0486 18.6435 20.2625C17.7345 20.4764 16.2374 19.514 15.9701 19.3001C15.7561 19.1397 11.9599 16.7336 10.5698 15.5573C10.1955 15.2365 9.76777 14.5949 10.6232 13.8463C12.5481 12.0819 14.8472 9.88969 16.2374 8.49953C16.879 7.85787 17.5206 6.36078 14.8472 8.17866C11.051 10.7986 7.30824 13.2582 7.30824 13.2582C7.30824 13.2582 6.45272 13.7928 4.8487 13.3116C3.2446 12.8304 1.37322 12.1888 1.37322 12.1888C1.37322 12.1888 0.0900589 11.3868 2.28223 10.5313Z" fill="white"/>
</svg>
